<?xml version="1.0" encoding="UTF-8"?>
<svg version="1.1" xmlns="http://www.w3.org/2000/svg" width="684" height="341">
<path d="M0 0 C11.22005876 9.40825939 13.17131041 30.30075752 14.74511719 44.08740234 C15.93493105 57.68364699 15.77479496 71.62207793 13 85 C12.69054371 86.69598569 12.38491034 88.39267112 12.08203125 90.08984375 C11.74327736 91.95592734 11.40342795 93.82181238 11.0625 95.6875 C10.90491211 96.55536133 10.74732422 97.42322266 10.58496094 98.31738281 C9.01519845 106.59402629 6.80839997 114.51489412 3.4375 122.25 C1.75668631 126.124773 0.33215374 129.99329144 -1 134 C-2.34171731 137.332525 -3.7007409 140.65700194 -5.07421875 143.9765625 C-6.55403777 148.80938917 -4.72602722 151.8005491 -2.56640625 156.2109375 C-2.08236328 157.20867187 -1.59832031 158.20640625 -1.09960938 159.234375 C-0.59236328 160.27078125 -0.08511719 161.3071875 0.4375 162.375 C1.43959704 164.4228193 2.43839994 166.47225451 3.43359375 168.5234375 C3.87759521 169.43013184 4.32159668 170.33682617 4.77905273 171.27099609 C7.164237 176.60224779 8.47262241 179.95930295 6.875 185.7109375 C6.58310791 186.78424316 6.29121582 187.85754883 5.99047852 188.96337891 C5.66362061 190.08921387 5.3367627 191.21504883 5 192.375 C4.67765381 193.52790527 4.35530762 194.68081055 4.02319336 195.86865234 C1.48345077 204.77113814 -1.47151897 213.44375662 -5 222 C-6.32 222 -7.64 222 -9 222 C-9 221.34 -9 220.68 -9 220 C-9.99 220 -10.98 220 -12 220 C-12 219.34 -12 218.68 -12 218 C-12.72960937 217.73316406 -13.45921875 217.46632812 -14.2109375 217.19140625 C-16.96354259 216.01557354 -19.1775238 214.64905123 -21.625 212.9375 C-24.17156156 211.16012171 -26.03197816 209.98934061 -29 209 C-29 208.34 -29 207.68 -29 207 C-29.99 207 -30.98 207 -32 207 C-32 206.34 -32 205.68 -32 205 C-32.7425 204.71125 -33.485 204.4225 -34.25 204.125 C-36.56739797 203.17697356 -38.77917115 202.15154089 -41 201 C-41 200.34 -41 199.68 -41 199 C-41.99 199 -42.98 199 -44 199 C-44.25394531 199.66386719 -44.50789063 200.32773438 -44.76953125 201.01171875 C-46.54730404 205.57267141 -48.2702294 209.9053441 -51 214 C-58.23298062 212.23303898 -65.20363239 210.0121914 -72.0859375 207.171875 C-76.45154635 205.41626822 -80.87032314 203.80405298 -85.29150391 202.1940918 C-97.64937811 197.62904477 -97.64937811 197.62904477 -101 192 C-100.53710076 188.45704045 -99.48341891 185.09810515 -98.4375 181.6875 C-98.16808594 180.80449219 -97.89867187 179.92148438 -97.62109375 179.01171875 C-97.41613281 178.34785156 -97.21117187 177.68398437 -97 177 C-97.99 177.33 -98.98 177.66 -100 178 C-102.99715828 177.76967651 -105.95418908 177.4751459 -108.9375 177.125 C-119.2798928 175.9908821 -129.60704337 175.4201408 -140 175 C-139.47219758 171.27339502 -138.79625137 168.09087442 -137.1875 164.6875 C-136.83042969 163.91792969 -136.47335938 163.14835938 -136.10546875 162.35546875 C-135.74066406 161.57816406 -135.37585938 160.80085937 -135 160 C-134.32973354 158.50160509 -133.66301744 157.00161657 -133 155.5 C-129 146.5 -129 146.5 -128 144.2734375 C-127.31022423 142.70527541 -126.64492988 141.12619463 -126 139.5390625 C-125.67 138.74242187 -125.34 137.94578125 -125 137.125 C-124.566875 136.04605469 -124.566875 136.04605469 -124.125 134.9453125 C-121.69271666 130.73948922 -117.66681601 129.29853449 -113.3125 127.5625 C-108.93350275 125.78751811 -104.57849718 123.99879329 -100.29882812 121.99438477 C-98 121 -98 121 -95.76171875 120.34008789 C-92.01999361 119.11182946 -89.6427289 118.08344458 -87.58862305 114.62084961 C-86.44671073 111.60983575 -85.53428519 108.6067734 -84.6875 105.5 C-84.06640625 103.42708333 -83.4453125 101.35416667 -82.82421875 99.28125 C-82.37961304 97.73183716 -82.37961304 97.73183716 -81.92602539 96.15112305 C-77.53620248 81.21322577 -71.7258753 67.01385545 -65 53 C-64.34 53 -63.68 53 -63 53 C-63 52.01 -63 51.02 -63 50 C-62.34 50 -61.68 50 -61 50 C-60.62875 48.948125 -60.62875 48.948125 -60.25 47.875 C-57.81688875 42.27884413 -54.39068488 38.17650513 -50 34 C-47.35332427 31.41949116 -44.92176133 28.90117221 -42.625 26 C-40.12178161 23.13917898 -37.78831406 21.24298505 -34.6484375 19.17578125 C-32.89968184 17.92844605 -31.49380129 16.53906799 -30 15 C-26.33333333 12 -26.33333333 12 -24 12 C-24 11.34 -24 10.68 -24 10 C-17.25 6 -17.25 6 -15 6 C-15 5.34 -15 4.68 -15 4 C-5.06952842 -0.94316808 -5.06952842 -0.94316808 0 0 Z M-38.375 64.125 C-40.61190219 68.08259618 -41.43798368 71.45403144 -41 76 C-39.36556652 80.39347716 -37.34370916 83.28335512 -33.1875 85.5 C-27.69554833 86.36148261 -23.79425945 86.88020275 -18.6875 84.375 C-15.59516903 81.6422424 -14.26275508 79.93682468 -13 76 C-12.72004427 71.27468667 -13.31583259 67.36020402 -16.25 63.5625 C-19.59065559 60.44961638 -21.89542489 59.27691778 -26.375 58.6875 C-31.1477592 59.25568562 -34.80002142 60.92633496 -38.375 64.125 Z " fill="#628BD2" transform="translate(187,23)"/>
<path d="M0 0 C5.62169797 4.49279716 9.65458195 10.14821412 10.75 17.3125 C7.97813012 17.42037818 5.21044463 17.49973327 2.4375 17.5625 C1.65181641 17.59601563 0.86613281 17.62953125 0.05664062 17.6640625 C-5.76306823 17.76312137 -5.76306823 17.76312137 -8.29296875 15.421875 C-9.25 13.3125 -9.25 13.3125 -9.25 11.3125 C-16.42480932 7.44914113 -23.41257721 5.94405119 -31.3125 8.3125 C-37.21171234 10.83243913 -40.97143081 15.19736063 -43.38671875 21.08203125 C-46.50808733 31.85852098 -45.50609543 41.4746761 -40.25 51.3125 C-39.92515625 52.03179687 -39.6003125 52.75109375 -39.265625 53.4921875 C-37.7960736 56.12607578 -36.06445493 56.39616584 -33.25 57.3125 C-32.13625 57.869375 -32.13625 57.869375 -31 58.4375 C-24.95431516 60.36112699 -18.84348835 59.83798406 -13.03515625 57.34375 C-6.57273525 53.61053525 -5.56428376 48.25535127 -3.25 41.3125 C-11.17 41.3125 -19.09 41.3125 -27.25 41.3125 C-27.25 37.3525 -27.25 33.3925 -27.25 29.3125 C-14.38 29.3125 -1.51 29.3125 11.75 29.3125 C11.75 43.9857357 11.01487123 54.25760431 1.15625 65.05859375 C-6.44392426 72.24649441 -16.02174655 74.40536352 -26.25 74.3125 C-36.84392162 73.63135866 -45.48454735 69.02196356 -52.71875 61.29296875 C-60.84187582 50.78678306 -62.09544941 39.19553858 -61.25 26.3125 C-59.64214214 15.71955407 -54.74172409 6.56800099 -46.40234375 -0.21875 C-32.31192165 -9.83399267 -13.91923644 -9.37524556 0 0 Z " fill="#638CD2" transform="translate(335.25,243.6875)"/>
<path d="M0 0 C1.91444664 -0.01846733 1.91444664 -0.01846733 3.86756897 -0.03730774 C5.09963782 -0.04923928 5.09963782 -0.04923928 6.35659695 -0.06141186 C8.15031416 -0.07865152 9.94403383 -0.09563809 11.73775578 -0.11237812 C15.43335137 -0.14711881 19.12876832 -0.18328528 22.82418823 -0.23373413 C25.33997581 -0.267858 27.85511315 -0.28318909 30.37109375 -0.29296875 C31.59753601 -0.3159906 31.59753601 -0.3159906 32.84875488 -0.33947754 C41.12452744 -0.34317704 48.33344819 1.52021514 54.49609375 7.25390625 C59.65515737 13.24378012 61.51019218 20.2195692 61 28 C59.25073576 36.92285245 54.1724624 42.707211 47 48 C47.34256836 48.65484375 47.68513672 49.3096875 48.03808594 49.984375 C49.60946364 52.98919718 51.17973926 55.99459398 52.75 59 C53.28882813 60.02996094 53.82765625 61.05992188 54.3828125 62.12109375 C57.30826391 67.72226291 60.19578689 73.33712305 63 79 C54.585 79.495 54.585 79.495 46 80 C44.824375 77.64875 43.64875 75.2975 42.4375 72.875 C42.03716553 72.09680908 41.63683105 71.31861816 41.22436523 70.5168457 C39.42789205 67.01534543 37.78848914 63.56713588 36.47265625 59.85546875 C35.06939477 56.11532044 33.69984655 53.02436901 31 50 C25.73202694 48.05017476 20.56960567 48.72382121 15 49 C15 59.23 15 69.46 15 80 C10.38 80 5.76 80 1 80 C-0.7082941 78.2917059 -0.11971926 76.13995623 -0.12442017 73.86213684 C-0.12082489 73.12702377 -0.11722961 72.39191071 -0.11352539 71.63452148 C-0.11367142 70.86384338 -0.11381744 70.09316528 -0.1139679 69.2991333 C-0.1132686 66.73975861 -0.10547545 64.1804558 -0.09765625 61.62109375 C-0.09579213 59.85132385 -0.0943682 58.08155344 -0.09336853 56.31178284 C-0.08954288 51.64448634 -0.0797122 46.97722077 -0.06866455 42.30993652 C-0.05845144 37.55102965 -0.05387113 32.79211779 -0.04882812 28.03320312 C-0.03808997 18.68878847 -0.02101299 9.3443968 0 0 Z M15 13 C14.90053547 14.76859193 14.86919783 16.54111451 14.8671875 18.3125 C14.86589844 19.38757813 14.86460937 20.46265625 14.86328125 21.5703125 C14.86714844 22.70210937 14.87101562 23.83390625 14.875 25 C14.87113281 26.13179687 14.86726563 27.26359375 14.86328125 28.4296875 C14.86457031 29.50476563 14.86585938 30.57984375 14.8671875 31.6875 C14.86831543 32.68136719 14.86944336 33.67523438 14.87060547 34.69921875 C14.7416567 36.96375226 14.7416567 36.96375226 16 38 C19.40848088 38.27993994 22.83139446 38.23184008 26.25 38.25 C27.20519531 38.270625 28.16039062 38.29125 29.14453125 38.3125 C36.07039239 38.36802153 36.07039239 38.36802153 42 35 C45.40837211 31.12150759 45.46140276 27.32596242 45.27734375 22.37109375 C44.8977478 19.12581572 44.24991449 17.39507027 42 15 C36.26614434 11.92056906 31.56162466 11.59252906 25.125 11.75 C24.25875 11.75515625 23.3925 11.7603125 22.5 11.765625 C18.4248796 11.46404834 18.4248796 11.46404834 15 13 Z " fill="#638CD2" transform="translate(277,31)"/>
<path d="M0 0 C6.27 0 12.54 0 19 0 C19.4626123 1.33772461 19.92522461 2.67544922 20.40185547 4.05371094 C22.55784044 10.28640669 24.7159861 16.51835288 26.875 22.75 C27.26138641 23.86536133 27.64777283 24.98072266 28.04586792 26.12988281 C33.05857445 40.5936992 38.10217682 55.04419429 43.30615234 69.44042969 C43.67047363 70.45008789 44.03479492 71.45974609 44.41015625 72.5 C44.72090088 73.3559375 45.03164551 74.211875 45.35180664 75.09375 C46 77 46 77 46 78 C40.72 78 35.44 78 30 78 C27.84667547 72.36034052 25.91457785 66.74373354 24 61 C9.15 60.505 9.15 60.505 -6 60 C-6.66 62.97 -7.32 65.94 -8 69 C-8.90943362 72.04117939 -9.95289477 75.00147138 -11 78 C-16.28 78 -21.56 78 -27 78 C-25.04814739 70.56336619 -22.82635377 63.32968424 -20.234375 56.09375 C-19.87788879 55.08896606 -19.52140259 54.08418213 -19.15411377 53.0489502 C-18.02314656 49.86462328 -16.88654934 46.68233815 -15.75 43.5 C-15.00356355 41.39855919 -14.2574674 39.29699748 -13.51171875 37.1953125 C-9.09390747 24.7643048 -4.58437692 12.37054089 0 0 Z M8 18 C6.71248643 21.78834888 5.43090931 25.57864846 4.15478516 29.37084961 C3.71988772 30.66046159 3.28337578 31.94953029 2.84521484 33.23803711 C2.21547426 35.0908453 1.59202743 36.94578889 0.96875 38.80078125 C0.59169922 39.91622314 0.21464844 41.03166504 -0.17382812 42.1809082 C-1.1406174 44.99020971 -1.1406174 44.99020971 -1 48 C5.6 48 12.2 48 19 48 C18.30975861 43.16831025 17.72749693 39.7105866 16.15234375 35.28515625 C15.61577148 33.76245117 15.61577148 33.76245117 15.06835938 32.20898438 C14.69517578 31.17064453 14.32199219 30.13230469 13.9375 29.0625 C13.56044922 27.99708984 13.18339844 26.93167969 12.79492188 25.83398438 C11.86907983 23.22053151 10.93730537 20.60935879 10 18 C9.34 18 8.68 18 8 18 Z " fill="#638CD2" transform="translate(507,238)"/>
<path d="M0 0 C6.2782865 3.37002217 10.53300689 6.22688745 13.26171875 12.95703125 C16.58157968 25.55405911 11.43888202 37.4389218 5.96484375 48.625 C4.97484375 48.295 3.98484375 47.965 2.96484375 47.625 C2.015625 45.55859375 2.015625 45.55859375 1.27734375 43.0625 C0.90029297 41.82306641 0.90029297 41.82306641 0.515625 40.55859375 C0.33386719 39.92050781 0.15210938 39.28242188 -0.03515625 38.625 C-3.34343578 41.85230766 -6.38555358 45.15234483 -9.28515625 48.75 C-11.68096221 51.71470972 -14.07751707 54.67604679 -16.51171875 57.609375 C-17.30320312 58.56328125 -18.0946875 59.5171875 -18.91015625 60.5 C-19.62945312 61.36367188 -20.34875 62.22734375 -21.08984375 63.1171875 C-22.96031239 65.52851454 -24.52556289 67.9760909 -26.03515625 70.625 C-27.35515625 70.295 -28.67515625 69.965 -30.03515625 69.625 C-30.16604394 55.58578522 -29.88635882 41.63944237 -29.03515625 27.625 C-29.6384375 28.06972656 -30.24171875 28.51445312 -30.86328125 28.97265625 C-31.6625 29.53855469 -32.46171875 30.10445313 -33.28515625 30.6875 C-34.0740625 31.25597656 -34.86296875 31.82445312 -35.67578125 32.41015625 C-38.45551648 33.84144376 -39.16593711 33.51699894 -42.03515625 32.625 C-33.23873587 4.1955343 -33.23873587 4.1955343 -26.3203125 -0.03515625 C-16.38520484 -4.72202044 -10.06502534 -4.5597026 0 0 Z " fill="#628BD2" transform="translate(112.03515625,237.375)"/>
<path d="M0 0 C4.62 0 9.24 0 14 0 C14.33 8.25 14.66 16.5 15 25 C16.98 23.68 18.96 22.36 21 21 C27.38942085 18.87019305 35.40009033 18.80395736 41.5625 21.6875 C46.9626109 24.92756654 49.42218557 28.98061681 51 35 C51.26290832 38.40645419 51.23315538 41.79610663 51.1953125 45.2109375 C51.1924826 46.17907379 51.18965271 47.14721008 51.18673706 48.14468384 C51.17558696 51.22158428 51.1504918 54.29818828 51.125 57.375 C51.11496352 59.4674437 51.10583884 61.55989198 51.09765625 63.65234375 C51.07566453 68.76834251 51.04117025 73.88412108 51 79 C46.71 79 42.42 79 38 79 C37.98541748 77.91581787 37.97083496 76.83163574 37.95581055 75.71459961 C37.89756528 71.66821336 37.8203353 67.62236841 37.73754883 63.57641602 C37.70442233 61.82976101 37.67635263 60.08300212 37.65356445 58.33618164 C37.61979119 55.8161213 37.56746653 53.29700248 37.51171875 50.77734375 C37.50532883 50.00414291 37.4989389 49.23094208 37.49235535 48.43431091 C37.3355137 42.56892807 36.31545596 37.56354052 32.25 33.0625 C28.98872559 31.52245375 26.56385197 31.62485769 23 32 C19.6494909 33.37066281 18.31802598 34.49368758 16.39135742 37.56103516 C14.66860516 41.81909593 14.52458185 45.35236706 14.48828125 49.8984375 C14.47033005 50.73339752 14.45237885 51.56835754 14.43388367 52.42861938 C14.38000078 55.07736261 14.34595639 57.72592794 14.3125 60.375 C14.27930741 62.17841005 14.24481596 63.9817967 14.20898438 65.78515625 C14.12428725 70.18997534 14.05737166 74.5947437 14 79 C9.38 79 4.76 79 0 79 C0 52.93 0 26.86 0 0 Z " fill="#638CD2" transform="translate(585,134)"/>
<path d="M0 0 C4.29 0 8.58 0 13 0 C13 14.52 13 29.04 13 44 C14.32 44 15.64 44 17 44 C17.27400635 43.40832031 17.5480127 42.81664062 17.83032227 42.20703125 C18.95651797 40.08204499 20.13559333 38.49020642 21.71484375 36.6875 C22.23626953 36.08679688 22.75769531 35.48609375 23.29492188 34.8671875 C23.83697266 34.25101563 24.37902344 33.63484375 24.9375 33 C26.01023685 31.77181266 27.08188313 30.54267176 28.15234375 29.3125 C28.66095947 28.73983398 29.1695752 28.16716797 29.69360352 27.57714844 C31.12920419 25.9438599 31.12920419 25.9438599 32.3359375 23.578125 C34.79373159 21.24725925 37.01663155 21.59243735 40.30664062 21.6484375 C41.09232422 21.68195312 41.87800781 21.71546875 42.6875 21.75 C43.48478516 21.76804687 44.28207031 21.78609375 45.10351562 21.8046875 C47.06952449 21.85177753 49.03491494 21.92352101 51 22 C46.36145562 28.31137551 41.46326189 34.36387013 36.41601562 40.3515625 C35.58166992 41.36089844 35.58166992 41.36089844 34.73046875 42.390625 C34.22926514 42.98907227 33.72806152 43.58751953 33.21166992 44.20410156 C31.8484254 46.22465902 31.2123422 47.56604972 31 50 C31.92144823 51.94400863 31.92144823 51.94400863 33.46484375 53.7578125 C34.01446777 54.46147949 34.5640918 55.16514648 35.13037109 55.89013672 C35.72672363 56.6276416 36.32307617 57.36514648 36.9375 58.125 C37.53127441 58.88184082 38.12504883 59.63868164 38.73681641 60.41845703 C41.34151029 63.72754274 43.98663342 67.00010923 46.68359375 70.234375 C47.40675781 71.10578125 48.12992188 71.9771875 48.875 72.875 C49.51179687 73.61492187 50.14859375 74.35484375 50.8046875 75.1171875 C51.19914063 75.73851563 51.59359375 76.35984375 52 77 C51.505 78.485 51.505 78.485 51 80 C37.91382314 81.14935054 37.91382314 81.14935054 33.29150391 77.73974609 C30.11063394 74.45478606 27.63570364 70.67404534 25.1875 66.82714844 C23.44934524 64.15273433 21.49133947 61.67667433 19.5 59.1875 C18.8915625 58.39730469 18.283125 57.60710937 17.65625 56.79296875 C16.0283121 54.74149969 16.0283121 54.74149969 13 54 C13 62.58 13 71.16 13 80 C8.71 80 4.42 80 0 80 C-1.48877534 77.02244933 -1.13868512 73.98485401 -1.12939453 70.72045898 C-1.13114685 69.97074829 -1.13289917 69.2210376 -1.13470459 68.4486084 C-1.13911479 65.96441348 -1.13618833 63.48028943 -1.1328125 60.99609375 C-1.13348571 59.27498867 -1.13445587 57.55388368 -1.13571167 55.83277893 C-1.13718746 52.22387793 -1.13503764 48.61500165 -1.13037109 45.00610352 C-1.1246696 40.36977137 -1.12795622 35.73349705 -1.13394356 31.09716702 C-1.13754874 27.54311178 -1.13641086 23.98907037 -1.13381577 20.43501472 C-1.1331466 18.72490495 -1.13397457 17.01479393 -1.13629532 15.30468559 C-1.1388216 12.91980515 -1.13498182 10.5350198 -1.12939453 8.15014648 C-1.13141876 7.43687698 -1.13344299 6.72360748 -1.13552856 5.98872375 C-1.11426361 1.11426361 -1.11426361 1.11426361 0 0 Z " fill="#638CD2" transform="translate(473,31)"/>
<path d="M0 0 C5.34303793 4.94887939 7.72709457 10.69069242 8.90625 17.765625 C8.90625 21.065625 8.90625 24.365625 8.90625 27.765625 C-4.95375 27.765625 -18.81375 27.765625 -33.09375 27.765625 C-30.13325926 37.07079513 -30.13325926 37.07079513 -26.46875 40.390625 C-21.44980602 42.43537996 -16.14335121 42.87968596 -10.9765625 40.9921875 C-8.94425331 39.85895013 -8.94425331 39.85895013 -7.79296875 37.65625 C-6.09375 35.765625 -6.09375 35.765625 -2.73828125 35.375 C-1.47371094 35.42140625 -0.20914063 35.4678125 1.09375 35.515625 C3.00220703 35.56976563 3.00220703 35.56976563 4.94921875 35.625 C5.92503906 35.67140625 6.90085937 35.7178125 7.90625 35.765625 C5.37183138 43.24215992 3.20102605 47.74926166 -4.03125 51.515625 C-12.15770199 55.48464946 -20.14798196 55.97792596 -28.71875 53.140625 C-37.15170301 49.74859921 -41.25541219 45.39035293 -45.1484375 37.23046875 C-48.64449263 28.1147217 -47.67625768 18.68312248 -44.09375 9.765625 C-40.78281073 3.5116286 -35.50872022 -1.70112307 -29.03125 -4.609375 C-28.061875 -4.815625 -27.0925 -5.021875 -26.09375 -5.234375 C-24.546875 -5.605625 -24.546875 -5.605625 -22.96875 -5.984375 C-14.47320439 -6.53247472 -6.89960792 -5.14970736 0 0 Z M-30.09375 9.765625 C-31.41862121 12.41536742 -32.23600708 14.90648192 -33.09375 17.765625 C-30.43196779 19.0965161 -28.40635604 18.87831493 -25.4296875 18.86328125 C-23.74746094 18.85844727 -23.74746094 18.85844727 -22.03125 18.85351562 C-20.2678125 18.84094727 -20.2678125 18.84094727 -18.46875 18.828125 C-17.28539062 18.82361328 -16.10203125 18.81910156 -14.8828125 18.81445312 C-11.95307493 18.80263967 -9.02343728 18.78616758 -6.09375 18.765625 C-5.42679451 16.91796658 -5.42679451 16.91796658 -5.09375 14.765625 C-7.22468995 10.89836361 -9.32708273 8.07531046 -13.09375 5.765625 C-19.51624435 4.68874151 -25.32860924 5.00048424 -30.09375 9.765625 Z " fill="#638CD2" transform="translate(574.09375,57.234375)"/>
<path d="M0 0 C7.04211604 6.73663613 9.60846985 14.12704773 10.25 23.75 C10.12117398 32.15589773 7.04613086 39.73317109 1.28125 45.8125 C-4.96074578 51.75725788 -10.91546704 54.07567877 -19.5 54.375 C-29.05518946 54.01618204 -34.88715906 51.09419152 -41.828125 44.4765625 C-47.59156911 37.90457767 -49.35321124 30.02581646 -49.2109375 21.4609375 C-48.43561731 12.41553529 -44.82679132 5.161027 -37.9609375 -0.7578125 C-26.7135472 -8.98470223 -10.83730444 -9.37748489 0 0 Z M-32 12 C-35.29650929 18.5266459 -35.07828254 26.64534321 -32.875 33.5 C-29.32687055 38.23083926 -26.42740135 41.06336859 -20.5625 42.0625 C-16.58545281 42.2767517 -13.7994315 41.67210866 -10.5078125 39.40625 C-6.62898988 35.78869522 -5.2186274 32.03472545 -4.65625 26.80078125 C-4.43943079 18.87784587 -5.22860727 14.18710164 -10.5 8.125 C-14.14392454 5.33526226 -17.83280751 5.2381682 -22.3046875 5.4453125 C-26.61933829 6.33325513 -29.39352226 8.49683312 -32 12 Z " fill="#638CD2" transform="translate(392,58)"/>
<path d="M0 0 C7.28607659 4.29660663 11.31225074 10.97128058 13.4375 19 C13.4375 22.96 13.4375 26.92 13.4375 31 C-0.0925 31 -13.6225 31 -27.5625 31 C-25.42402967 38.97293637 -25.42402967 38.97293637 -20.5625 44 C-16.22929898 45.44440034 -12.0910153 45.54168843 -7.5625 45 C-4.62826805 43.20353146 -3.09044645 42.0558929 -1.5625 39 C3.0575 39 7.6775 39 12.4375 39 C11.03186001 45.38927269 8.8047142 49.74506053 3.2734375 53.44921875 C-4.86241284 57.95622156 -13.39931409 59.21328781 -22.43359375 56.7890625 C-30.6795471 53.73276419 -36.16678492 48.39449273 -39.875 40.5 C-43.30070495 31.201658 -42.5499994 21.39184066 -38.76171875 12.33984375 C-35.44782224 5.8739675 -30.63343131 1.60862764 -23.82421875 -1.08203125 C-16.14643353 -3.24284506 -7.33956571 -3.30781641 0 0 Z M-25.875 14.9375 C-27.8842365 18.00111714 -27.8842365 18.00111714 -27.5625 22 C-18.6525 22 -9.7425 22 -0.5625 22 C-1.495841 14.490647 -1.495841 14.490647 -6.39453125 10.1015625 C-13.76204662 6.3580682 -21.00874917 8.75604624 -25.875 14.9375 Z " fill="#638CD2" transform="translate(396.5625,260)"/>
<path d="M0 0 C5.32137877 3.54352682 8.69604233 7.70634591 10 14 C10.10931529 15.43399229 10.1750065 16.87173698 10.20532227 18.30957031 C10.2352401 19.5704245 10.2352401 19.5704245 10.26576233 20.85675049 C10.28247482 21.75480408 10.29918732 22.65285767 10.31640625 23.578125 C10.33718735 24.5046991 10.35796844 25.43127319 10.37937927 26.38592529 C10.44466961 29.34054272 10.50366431 32.29524768 10.5625 35.25 C10.60570473 37.25521732 10.64931965 39.26042585 10.69335938 41.265625 C10.80032999 46.17699404 10.90165518 51.08845097 11 56 C6.71 56 2.42 56 -2 56 C-3 51 -3 51 -2 49 C-2.51949219 49.40992188 -3.03898437 49.81984375 -3.57421875 50.2421875 C-4.62029297 51.05042969 -4.62029297 51.05042969 -5.6875 51.875 C-6.37199219 52.40867188 -7.05648437 52.94234375 -7.76171875 53.4921875 C-13.60997655 57.43185157 -19.13181081 57.64142572 -26 57 C-32.03875074 55.45651334 -36.67730239 52.20449602 -39.875 46.875 C-41.59986422 42.19179309 -41.44584841 37.74534863 -40 33 C-36.88352829 27.6831376 -32.93030497 24.21179062 -27.01171875 22.453125 C-19.04064254 20.65769813 -11.13719889 20.89714215 -3 21 C-3.42683632 19.72554546 -3.86697202 18.45554118 -4.3125 17.1875 C-4.55613281 16.47980469 -4.79976563 15.77210938 -5.05078125 15.04296875 C-6.43052914 12.07338791 -8.08630961 10.4568452 -11 9 C-14.38560014 8.58054512 -17.62098217 8.50512022 -21 9 C-24.02409364 11.27127334 -24.02409364 11.27127334 -26 14 C-28.76452033 15.38226016 -31.0461363 15.09525387 -34.125 15.0625 C-35.22070312 15.05347656 -36.31640625 15.04445312 -37.4453125 15.03515625 C-38.70988281 15.01775391 -38.70988281 15.01775391 -40 15 C-39.86519052 9.60762073 -37.70965596 6.61551703 -34.1328125 2.8359375 C-24.92618413 -5.08918216 -10.53054693 -5.45331894 0 0 Z M-25 33 C-27.34522935 35.88512978 -27.34522935 35.88512978 -26.875 39.5 C-26.33396966 42.97564727 -26.33396966 42.97564727 -24.25 44.69140625 C-20.32452397 46.97445221 -16.39974483 46.60470427 -12 46 C-7.69049978 44.11949081 -5.85000338 42.26083784 -4.125 38 C-3.11594187 35.03081747 -3 33.27535246 -3 30 C-14.4613634 29.25717184 -14.4613634 29.25717184 -25 33 Z " fill="#638CD2" transform="translate(376,157)"/>
<path d="M0 0 C1.79244141 0.01740234 1.79244141 0.01740234 3.62109375 0.03515625 C5.41740234 0.04869141 5.41740234 0.04869141 7.25 0.0625 C8.17683594 0.07410156 9.10367187 0.08570313 10.05859375 0.09765625 C10.07317627 1.18183838 10.08775879 2.26602051 10.1027832 3.38305664 C10.16102847 7.42944289 10.23825845 11.47528784 10.32104492 15.52124023 C10.35417142 17.26789524 10.38224112 19.01465413 10.4050293 20.76147461 C10.43880256 23.28153495 10.49112722 25.80065377 10.546875 28.3203125 C10.55326492 29.09351334 10.55965485 29.86671417 10.5662384 30.66334534 C10.70420744 35.82295194 11.58351268 39.53547979 14.05859375 44.09765625 C18.03808245 46.623101 20.07253682 47.24807171 24.74609375 46.53515625 C28.0763737 45.08994042 29.82874027 43.9278549 32.05859375 41.09765625 C33.32253604 37.30582939 33.27195407 33.70036559 33.33984375 29.74609375 C33.35825317 28.9314566 33.3766626 28.11681946 33.39562988 27.27749634 C33.47434105 23.79060014 33.54225151 20.30351402 33.61083984 16.81640625 C33.66242775 14.27203407 33.71971283 11.72783503 33.77734375 9.18359375 C33.79091919 8.38883636 33.80449463 7.59407898 33.81848145 6.77523804 C33.94574186 1.21050814 33.94574186 1.21050814 35.05859375 0.09765625 C39.34859375 0.09765625 43.63859375 0.09765625 48.05859375 0.09765625 C48.05859375 19.23765625 48.05859375 38.37765625 48.05859375 58.09765625 C43.43859375 58.09765625 38.81859375 58.09765625 34.05859375 58.09765625 C33.72859375 56.44765625 33.39859375 54.79765625 33.05859375 53.09765625 C32.33671875 53.71640625 31.61484375 54.33515625 30.87109375 54.97265625 C24.90483671 59.4804949 19.32657663 59.76597651 12.05859375 59.09765625 C6.93350137 57.87375359 3.37498713 55.15102593 0.05859375 51.09765625 C-2.98179011 45.33756124 -3.42006929 40.49620967 -3.48828125 34.04296875 C-3.50860413 33.10081512 -3.528927 32.1586615 -3.54986572 31.18795776 C-3.58988198 29.20973876 -3.6231143 27.23137204 -3.64990234 25.25292969 C-3.6915643 22.21111677 -3.75417446 19.17027633 -3.8203125 16.12890625 C-3.85668075 14.20444961 -3.89187899 12.27997042 -3.92578125 10.35546875 C-3.94340515 9.44201691 -3.96102905 8.52856506 -3.97918701 7.58743286 C-4.00605947 5.42430425 -3.97937641 3.26061853 -3.94140625 1.09765625 C-2.94140625 0.09765625 -2.94140625 0.09765625 0 0 Z " fill="#638CD2" transform="translate(400.94140625,154.90234375)"/>
<path d="M0 0 C4.78649856 3.56096995 6.96050854 8.08014705 8.16186523 13.79345703 C8.72305318 17.99589716 8.74142443 22.08643736 8.71484375 26.3203125 C8.7134288 27.17746857 8.71201385 28.03462463 8.71055603 28.91775513 C8.70498772 31.6379149 8.69244114 34.35799038 8.6796875 37.078125 C8.6746684 38.92968631 8.67010621 40.78124891 8.66601562 42.6328125 C8.65502867 47.15628215 8.63778602 51.67968932 8.6171875 56.203125 C3.9971875 56.203125 -0.6228125 56.203125 -5.3828125 56.203125 C-5.39739502 55.05312012 -5.41197754 53.90311523 -5.42700195 52.71826172 C-5.48515012 48.43523695 -5.56238174 44.15272884 -5.64526367 39.87011719 C-5.67843546 38.01961681 -5.70649137 36.16901714 -5.72924805 34.31835938 C-5.762937 31.65191497 -5.8152591 28.9863741 -5.87109375 26.3203125 C-5.87748367 25.49820282 -5.8838736 24.67609314 -5.89045715 23.82907104 C-6.0153439 18.9055912 -6.69764615 15.48625833 -9.3828125 11.203125 C-12.73152236 8.57199582 -16.26269314 8.84171102 -20.3828125 9.203125 C-23.23982957 10.05058134 -23.23982957 10.05058134 -25.3828125 12.203125 C-27.94709407 17.91623071 -28.84128383 22.64155343 -28.89453125 28.859375 C-28.91248245 29.64711304 -28.93043365 30.43485107 -28.94892883 31.24645996 C-29.00257555 33.73196249 -29.03677866 36.2172782 -29.0703125 38.703125 C-29.10352607 40.40106742 -29.1380194 42.09898532 -29.17382812 43.796875 C-29.25827473 47.93215575 -29.32530106 52.06738552 -29.3828125 56.203125 C-33.6728125 56.203125 -37.9628125 56.203125 -42.3828125 56.203125 C-42.3828125 37.063125 -42.3828125 17.923125 -42.3828125 -1.796875 C-38.0928125 -1.796875 -33.8028125 -1.796875 -29.3828125 -1.796875 C-29.3828125 -0.146875 -29.3828125 1.503125 -29.3828125 3.203125 C-28.6815625 2.584375 -27.9803125 1.965625 -27.2578125 1.328125 C-19.50412418 -4.40286202 -8.35125781 -4.92065813 0 0 Z " fill="#638CD2" transform="translate(503.3828125,156.796875)"/>
<path d="M0 0 C4.11418021 2.53180321 6.46121308 5.55372058 7.96679688 10.20214844 C10.09252111 19.33779988 9.59149316 28.68323456 9.5 38 C9.48995103 39.78515123 9.48082857 41.57030794 9.47265625 43.35546875 C9.4507925 47.69544931 9.41636815 52.03516332 9.375 56.375 C4.755 56.375 0.135 56.375 -4.625 56.375 C-4.63958252 55.25528809 -4.65416504 54.13557617 -4.66918945 52.98193359 C-4.72734886 48.81071726 -4.80458023 44.64003081 -4.88745117 40.46923828 C-4.92061773 38.66724271 -4.94867525 36.86514533 -4.97143555 35.06298828 C-5.00513432 32.46603177 -5.05745649 29.87000134 -5.11328125 27.2734375 C-5.11967117 26.4732016 -5.1260611 25.6729657 -5.13264465 24.84848022 C-5.25900371 19.99476249 -5.92341971 16.56701118 -8.625 12.375 C-12.64464938 9.69523374 -15.90132299 9.56973344 -20.625 10.375 C-24.90158697 13.46870122 -26.2809151 16.3769358 -27.625 21.375 C-27.85232277 24.15126203 -27.99539097 26.83983829 -28.0390625 29.6171875 C-28.05842865 30.38555939 -28.0777948 31.15393127 -28.0977478 31.94558716 C-28.15714117 34.38028138 -28.20376628 36.81502393 -28.25 39.25 C-28.28821693 40.90887386 -28.32727079 42.56772867 -28.3671875 44.2265625 C-28.46280907 48.27588542 -28.54698701 52.32530113 -28.625 56.375 C-32.915 56.375 -37.205 56.375 -41.625 56.375 C-41.625 37.565 -41.625 18.755 -41.625 -0.625 C-37.335 -0.625 -33.045 -0.625 -28.625 -0.625 C-28.625 1.025 -28.625 2.675 -28.625 4.375 C-28.15449219 4.02566406 -27.68398438 3.67632812 -27.19921875 3.31640625 C-26.57660156 2.86136719 -25.95398438 2.40632813 -25.3125 1.9375 C-24.69761719 1.48503906 -24.08273437 1.03257812 -23.44921875 0.56640625 C-17.25353194 -3.48002732 -6.57481616 -2.99533213 0 0 Z " fill="#638CD2" transform="translate(461.625,259.625)"/>
<path d="M0 0 C4.95 0 9.9 0 15 0 C15 21.78 15 43.56 15 66 C26.55 66 38.1 66 50 66 C50 70.62 50 75.24 50 80 C33.5 80 17 80 0 80 C0 53.6 0 27.2 0 0 Z " fill="#638CD3" transform="translate(277,133)"/>
<path d="M0 0 C1.765625 1.1171875 1.765625 1.1171875 3.4375 2.4375 C4.07171875 2.93507813 4.7059375 3.43265625 5.359375 3.9453125 C10.06401153 8.12505157 11.99344649 12.37247525 13.4375 18.4375 C11.56170111 20.31329889 8.64129917 19.78263307 6.125 19.875 C2.546875 19.86328125 2.546875 19.86328125 -0.5625 19.4375 C-3.125 16.5625 -3.125 16.5625 -4.5625 13.4375 C-8.87796737 10.59837673 -13.58439162 10.79907376 -18.5625 11.4375 C-22.47870601 13.5205883 -24.4871876 16.14095564 -26.05859375 20.31640625 C-27.73469602 27.37162743 -27.25504559 34.19837125 -23.5625 40.4375 C-20.8349521 43.31657834 -19.01347003 44.31223055 -15.1875 45.375 C-10.76947538 45.45117284 -8.37284318 44.6661913 -4.5625 42.4375 C-4.02625 41.385625 -3.49 40.33375 -2.9375 39.25 C-0.5625 36.4375 -0.5625 36.4375 2.5703125 36.05078125 C5.87841989 36.06149866 9.13993968 36.18017593 12.4375 36.4375 C12.7675 37.0975 13.0975 37.7575 13.4375 38.4375 C11.00120926 45.71974609 6.86510002 51.26824593 0.4375 55.4375 C-7.89667182 59.58238119 -16.42285774 59.45522163 -25.140625 56.53125 C-33.22693467 52.87936821 -37.4152247 46.50154874 -40.5625 38.4375 C-43.51949503 29.11159259 -41.8902403 19.00839936 -37.5625 10.4375 C-30.23854675 -1.32001693 -12.59934675 -5.76748093 0 0 Z " fill="#638CD2" transform="translate(450.5625,53.5625)"/>
<path d="M0 0 C5.68800555 4.80320469 8.97429024 9.62514683 10 17 C5.2866696 17.34026717 0.70191672 17.54546598 -4 17 C-6.625 14.125 -6.625 14.125 -8 11 C-12.1080596 8.32931763 -16.26138795 8.45747554 -21 9 C-25.2269152 10.74589976 -27.01195538 12.92450852 -29 17 C-30.92956512 23.49888252 -30.65045694 30.04095192 -27.96875 36.2734375 C-26.38695869 39.09259782 -24.82020488 40.43321951 -22 42 C-16.44715931 43.25386725 -12.34496453 43.35178439 -7 41 C-5.54708727 38.53744315 -5.54708727 38.53744315 -5 36 C-4 35 -4 35 -0.83984375 34.90234375 C0.44792969 34.91394531 1.73570312 34.92554688 3.0625 34.9375 C4.35285156 34.94652344 5.64320313 34.95554688 6.97265625 34.96484375 C7.97167969 34.97644531 8.97070312 34.98804688 10 35 C8.11741279 42.28263998 5.51221975 48.13965261 -1.02734375 52.28515625 C-9.13061261 56.49523448 -17.80814575 57.45023393 -26.6875 54.9375 C-34.83053014 51.79099819 -39.44401558 46.16625847 -43.08984375 38.4296875 C-46.510768 29.29743479 -45.5920816 19.91827155 -42 11 C-38.40414183 4.32197768 -32.7376627 -1.1529627 -25.4296875 -3.52734375 C-16.58035024 -5.24883862 -7.67676042 -5.03582361 0 0 Z " fill="#638CD2" transform="translate(566,158)"/>
<path d="M0 0 C4.62 0 9.24 0 14 0 C14 4.62 14 9.24 14 14 C18.95 14 23.9 14 29 14 C29 17.63 29 21.26 29 25 C24.05 25 19.1 25 14 25 C14.05109664 29.34321402 14.11406994 33.68286823 14.20751953 38.02490234 C14.23570088 39.50102196 14.25692966 40.97729169 14.27099609 42.45361328 C14.29246698 44.57923057 14.33913043 46.70304879 14.390625 48.828125 C14.41157227 50.1059082 14.43251953 51.38369141 14.45410156 52.70019531 C15.08251768 56.49879648 15.9490144 57.72526703 19 60 C21.14703124 60.27076301 21.14703124 60.27076301 23.25 59.75 C24.4875 59.5025 25.725 59.255 27 59 C27.69965443 60.26418246 28.38434763 61.53665402 29.0625 62.8125 C29.44535156 63.52019531 29.82820312 64.22789063 30.22265625 64.95703125 C31 67 31 67 30 70 C23.14474906 73.1912375 17.67595639 73.91806351 10.3125 71.8125 C6.27505792 70.33622441 4.17529774 68.82852403 2 65 C0.27723775 59.95609621 -0.27492403 55.38607535 -0.1953125 50.09765625 C-0.1924826 49.3750914 -0.18965271 48.65252655 -0.18673706 47.9080658 C-0.17564386 45.62603384 -0.15056088 43.34441103 -0.125 41.0625 C-0.11495611 39.50456301 -0.10583274 37.94661979 -0.09765625 36.38867188 C-0.07574033 32.59229301 -0.04128738 28.7962156 0 25 C-4.95 25.495 -4.95 25.495 -10 26 C-10 22.04 -10 18.08 -10 14 C-6.7 14 -3.4 14 0 14 C0 9.38 0 4.76 0 0 Z " fill="#638CD2" transform="translate(599,39)"/>
<path d="M0 0 C4.62 0 9.24 0 14 0 C14 25.74 14 51.48 14 78 C9.38 78 4.76 78 0 78 C0 52.26 0 26.52 0 0 Z " fill="#638CD2" transform="translate(562,238)"/>
</svg>
